<?xml version="1.0" encoding="UTF-8"?>
<svg width="70px" height="40px" viewBox="0 0 70 40" version="1.1" xmlns="http://www.w3.org/2000/svg" xmlns:xlink="http://www.w3.org/1999/xlink">
    <!-- Generator: Sketch 53.2 (72643) - https://sketchapp.com -->
    <title>logo / products / uber_white</title>
    <desc>Created with Sketch.</desc>
    <g id="logo-/-products-/-uber_white" stroke="none" stroke-width="1" fill="none" fill-rule="evenodd">
        <path d="M16.77627,26.0761724 C19.1378003,26.0761724 20.9637629,24.2498105 20.9637629,21.5472102 L20.9637629,11.0287553 L23.5197909,11.0287553 L23.5197909,28.0726699 L20.988125,28.0726699 L20.988125,26.4899294 C19.8439031,27.6828757 18.261562,28.3646163 16.4839243,28.3646163 C12.8315998,28.3646163 10.031551,25.7107403 10.031551,21.6949806 L10.031551,11.031551 L12.587579,11.031551 L12.587579,21.5472102 C12.587579,24.2985348 14.3891794,26.0761724 16.7754713,26.0761724 L16.77627,26.0761724 Z M25.4196387,11.0291547 L27.8786175,11.0291547 L27.8786175,17.2379066 C29.0372521,16.0510898 30.6267694,15.3835329 32.2853697,15.3871825 C35.9376942,15.3871825 38.8104301,18.28468 38.8104301,21.8882802 C38.8104301,25.4675182 35.9376942,28.3646163 32.2853697,28.3646163 C30.6189592,28.3691248 29.0209891,27.7021523 27.8522585,26.5142916 L27.8522585,28.0718712 L25.4160443,28.0718712 L25.4196387,11.0291547 Z M32.1152341,26.1979831 C34.4528016,26.1979831 36.3762127,24.2741726 36.3762127,21.8882802 C36.3762127,19.4776262 34.4528016,17.5785772 32.1152341,17.5785772 C29.7533044,17.5785772 27.8298933,19.4776262 27.8298933,21.8882802 C27.8298933,24.2741726 29.7289422,26.1979831 32.1152341,26.1979831 Z M46.1642027,15.4115447 C49.7430414,15.4115447 52.3729546,18.1628693 52.3729546,21.863918 L52.3729546,22.6674694 L42.2698543,22.6674694 C42.6109243,24.688329 44.290714,26.1979831 46.383462,26.1979831 C47.8212278,26.1979831 49.0377374,25.6132917 49.9627,24.3716212 L51.7403377,25.6863781 C50.4982678,27.3422051 48.6479431,28.3402541 46.383462,28.3402541 C42.6584504,28.3402541 39.7853152,25.5645674 39.7853152,21.863918 C39.7853152,18.3577664 42.5366397,15.4115447 46.1646021,15.4115447 L46.1642027,15.4115447 Z M42.3173805,20.7196961 L49.8896136,20.7196961 C49.4758565,18.8202477 47.9418403,17.5542151 46.1158778,17.5542151 C44.2899152,17.5542151 42.755899,18.8202477 42.3173805,20.7196961 Z M58.9711014,17.8465608 C57.3639988,17.8465608 56.1954147,19.0882313 56.1954147,21.0116424 L56.1954147,28.0726699 L53.7360364,28.0726699 L53.7360364,15.6551661 L56.1722507,15.6551661 L56.1722507,17.1903805 C56.7809049,16.191932 57.7793533,15.5589157 59.1428346,15.5589157 L59.9947108,15.5589157 L59.9947108,17.8477589 L58.9711014,17.8465608 Z" id="Uber_Logo" fill="#FFFFFF" fill-rule="nonzero"></path>
    </g>
</svg>